<?xml version="1.0" encoding="UTF-8" standalone="no"?><!DOCTYPE svg PUBLIC "-//W3C//DTD SVG 1.1//EN" "http://www.w3.org/Graphics/SVG/1.1/DTD/svg11.dtd"><svg width="100%" height="100%" viewBox="0 0 5000 5000" version="1.1" xmlns="http://www.w3.org/2000/svg" xmlns:xlink="http://www.w3.org/1999/xlink" xml:space="preserve" xmlns:serif="http://www.serif.com/" style="fill-rule:evenodd;clip-rule:evenodd;stroke-linejoin:round;stroke-miterlimit:2;"><rect id="Page-8" serif:id="Page 8" x="0" y="0" width="5000" height="5000" style="fill:none;"/><g id="logo"><g><path d="M422.5,1635.251l0,108.36l308.213,-60.59l0,1644.51c0,4.485 -0.237,8.801 -0.555,13.042c192.325,-81.085 262.648,-255.868 271.863,-280.893c0.755,-370.202 -0.414,-1628.455 -0.414,-1628.455l-579.106,204.027Z" style="fill:#fff;fill-rule:nonzero;"/><path d="M514.683,3490.062l-0.207,0c-0.296,0.007 -0.489,0.007 -0.489,0.007l0,162.541c434.944,0 486.119,-325.081 487.622,-487.622c0.17,-18.563 0.303,-53.425 0.4,-100.544c-57.141,416.122 -469.095,425.411 -487.326,425.618" style="fill:#fff;fill-rule:nonzero;"/><path d="M3921.187,3053.567l-59.213,0c-224.219,0 -310.87,-89.797 -310.87,-267.215c0,-298.613 368.499,-392.177 518.117,-392.177c0,0 217.972,170.046 217.972,395.893c0,200.985 -173.258,263.499 -366.005,263.499m-29.185,-1409.795c153.71,6.736 295.578,115.296 284.675,308.731c-15.854,281.219 -339.455,296.77 -339.455,296.77c-23.619,-53.388 -37.201,-48.303 -90.907,-35.395c-112.268,26.979 -120.196,-60.819 -118.242,-74.535c1.961,-13.715 -22.079,-10.584 -24.855,-21.998c-3.286,-13.493 7.172,-13.856 7.172,-24.403c0,-10.547 -19.096,-8.971 -19.096,-19.518c0,-10.547 9.304,-11.073 9.304,-29.007c0,-17.934 -43.085,-20.051 -43.085,-45.89c0,-25.847 46.83,-80.249 46.83,-101.877c0,-33.367 -9.037,-40.302 -7.046,-75.948c1.887,-33.996 12.975,-63.469 30.813,-88.465c0,0 -55.327,33.322 -81.048,73.417c0,0 60.331,-174.346 344.94,-161.882m-587.108,926.215c14.204,-82.521 30.413,-159.114 58.436,-235.018c-28.023,-75.911 -44.232,-152.504 -58.436,-235.025c30.554,91.677 84.897,172.481 155.761,235.025c-70.864,62.537 -125.207,143.341 -155.761,235.018m1027.751,-237.468c84.905,-95.652 136.494,-221.539 136.494,-359.499c0,-299.227 -242.575,-541.802 -541.802,-541.802l-108.36,0c-379.261,0 -541.802,162.541 -541.802,541.802c0,0.859 0.067,1.702 0.067,2.561c-0.022,-0.141 -0.044,-0.274 -0.067,-0.422l0,808.432c0.022,-0.141 0.044,-0.281 0.067,-0.422c0,0.859 -0.067,1.702 -0.067,2.554c0,379.261 162.541,541.802 541.802,541.802l216.721,0c299.227,0 541.802,-242.567 541.802,-541.802c0,-189.579 -97.391,-356.383 -244.855,-453.204" style="fill:#fff;fill-rule:nonzero;"/><path d="M1170.807,2574.714c-0.481,-7.92 -0.866,-15.862 -1.162,-23.833c-0.089,-2.309 -0.192,-4.611 -0.266,-6.921c-0.281,-9.681 -0.474,-19.385 -0.474,-29.133c0,-8.889 0.126,-17.764 0.37,-26.624c0.089,-3.457 0.289,-6.906 0.422,-10.362c0.207,-5.388 0.37,-10.784 0.666,-16.165c0.252,-4.656 0.629,-9.296 0.947,-13.945c0.289,-4.145 0.518,-8.305 0.859,-12.45c0.459,-5.67 1.058,-11.317 1.621,-16.972c0.311,-3.094 0.555,-6.203 0.896,-9.296c0.659,-6.032 1.451,-12.035 2.22,-18.045c0.348,-2.694 0.629,-5.403 0.999,-8.09c0.873,-6.38 1.88,-12.723 2.879,-19.074c0.363,-2.302 0.666,-4.611 1.044,-6.913c1.125,-6.81 2.376,-13.589 3.642,-20.362c0.34,-1.813 0.629,-3.634 0.977,-5.448c1.347,-6.995 2.82,-13.96 4.323,-20.925c0.34,-1.569 0.629,-3.146 0.977,-4.715c1.591,-7.187 3.309,-14.344 5.055,-21.487c0.326,-1.317 0.607,-2.642 0.933,-3.96c1.739,-6.965 3.605,-13.893 5.492,-20.806c0.407,-1.48 0.762,-2.975 1.177,-4.456c1.932,-6.943 3.982,-13.841 6.069,-20.725c0.429,-1.436 0.822,-2.879 1.266,-4.315c2.117,-6.891 4.36,-13.737 6.632,-20.577c0.466,-1.406 0.896,-2.827 1.369,-4.234c2.28,-6.765 4.685,-13.486 7.113,-20.199c0.526,-1.458 1.014,-2.924 1.547,-4.382c2.465,-6.699 5.048,-13.36 7.661,-20.007c0.563,-1.429 1.081,-2.879 1.651,-4.315c2.628,-6.58 5.366,-13.108 8.127,-19.637c0.629,-1.466 1.206,-2.953 1.836,-4.419c2.746,-6.395 5.618,-12.731 8.497,-19.067c0.718,-1.569 1.384,-3.161 2.109,-4.722c2.916,-6.314 5.951,-12.568 9,-18.815c0.762,-1.554 1.473,-3.124 2.243,-4.67c2.998,-6.069 6.121,-12.08 9.252,-18.09c0.888,-1.702 1.725,-3.42 2.62,-5.115c3.042,-5.751 6.203,-11.443 9.356,-17.135c1.066,-1.91 2.08,-3.856 3.153,-5.758c3.049,-5.418 6.217,-10.769 9.378,-16.128c1.258,-2.139 2.472,-4.308 3.745,-6.439c3.101,-5.166 6.306,-10.266 9.504,-15.373c1.421,-2.28 2.79,-4.582 4.234,-6.847c3.086,-4.848 6.284,-9.63 9.459,-14.426c1.643,-2.48 3.227,-4.989 4.893,-7.453c3.027,-4.478 6.158,-8.889 9.259,-13.323c1.91,-2.724 3.76,-5.485 5.699,-8.194c2.961,-4.138 6.025,-8.208 9.052,-12.309c2.176,-2.938 4.293,-5.907 6.506,-8.823c2.961,-3.915 6.025,-7.764 9.045,-11.643c2.369,-3.027 4.685,-6.084 7.083,-9.089c2.901,-3.627 5.899,-7.18 8.852,-10.769c2.628,-3.19 5.218,-6.417 7.89,-9.578c2.842,-3.36 5.773,-6.661 8.667,-9.985c2.872,-3.309 5.707,-6.654 8.63,-9.926c2.798,-3.138 5.684,-6.21 8.534,-9.311c3.109,-3.397 6.188,-6.824 9.356,-10.185c2.687,-2.857 5.462,-5.647 8.194,-8.475c3.412,-3.531 6.787,-7.091 10.259,-10.577c2.576,-2.591 5.233,-5.122 7.846,-7.69c3.716,-3.649 7.394,-7.32 11.177,-10.91c2.465,-2.354 5.011,-4.641 7.505,-6.972c4.004,-3.73 7.979,-7.483 12.057,-11.154c2.391,-2.154 4.848,-4.249 7.268,-6.38c4.078,-3.605 8.12,-7.239 12.272,-10.784c0.104,-0.126 0.222,-0.244 0.333,-0.377c7.868,-9.193 15.906,-18.238 24.107,-27.135c0.711,-0.77 1.429,-1.532 2.139,-2.302c8.12,-8.749 16.358,-17.387 24.788,-25.839c0.037,-0.037 0.074,-0.081 0.118,-0.118c7.661,-7.676 15.492,-15.188 23.411,-22.605c2.361,-2.22 4.737,-4.434 7.12,-6.632c7.165,-6.587 14.404,-13.094 21.768,-19.459c3.331,-2.894 6.728,-5.699 10.096,-8.542c4.419,-3.723 8.867,-7.409 13.353,-11.051c6.624,-5.381 13.316,-10.651 20.059,-15.847c3.745,-2.887 7.468,-5.788 11.258,-8.616c5.285,-3.945 10.614,-7.816 15.973,-11.65c2.206,-1.577 4.426,-3.131 6.647,-4.693c10.318,-7.261 20.762,-14.315 31.331,-21.161c1.369,-0.881 2.731,-1.784 4.101,-2.665c18.401,-11.776 37.179,-22.893 56.304,-33.382c1.954,-1.073 3.915,-2.146 5.884,-3.205c18.438,-9.948 37.179,-19.304 56.23,-28.03c3.871,-1.769 7.757,-3.508 11.65,-5.233c7.098,-3.138 14.226,-6.203 21.406,-9.171c6.173,-2.561 12.368,-5.078 18.608,-7.513c4.256,-1.658 8.527,-3.279 12.812,-4.878c8.112,-3.035 16.261,-5.981 24.477,-8.801c2.628,-0.896 5.255,-1.784 7.89,-2.665c9.104,-3.042 18.282,-5.921 27.505,-8.697c2.413,-0.725 4.826,-1.458 7.246,-2.161c10.806,-3.161 21.687,-6.166 32.641,-8.956c0.052,-0.015 0.096,-0.03 0.148,-0.037c-2.472,0.059 -4.944,0.163 -7.416,0.244c-4.411,0.141 -8.815,0.281 -13.205,0.481c-4.626,0.215 -9.252,0.489 -13.871,0.777c-2.339,0.141 -4.685,0.266 -7.024,0.429c-5.847,0.4 -11.68,0.859 -17.512,1.369c-0.799,0.067 -1.599,0.133 -2.398,0.207c-193.169,17.446 -377.463,94.49 -526.244,221.339c-0.104,0.089 -0.222,0.141 -0.326,0.229c-202.739,172.984 -331.521,430.222 -331.521,717.007c0,213.849 72.625,418.964 203.42,584.125c-69.287,-122.919 -112.594,-262.322 -122.446,-410.741c-0.111,-1.717 -0.222,-3.427 -0.326,-5.144" style="fill:#fff;fill-rule:nonzero;"/><path d="M2309.113,3376.555c-7.905,0.481 -15.832,0.866 -23.789,1.162c-2.309,0.081 -4.619,0.192 -6.935,0.259c-9.674,0.289 -19.378,0.474 -29.126,0.474c-535.955,0 -971.994,-436.025 -971.994,-971.979c0,-9.748 0.192,-19.452 0.474,-29.133c0.074,-2.309 0.178,-4.619 0.266,-6.928c0.296,-7.964 0.681,-15.899 1.162,-23.819c0.104,-1.717 0.215,-3.442 0.326,-5.159c9.852,-148.315 53.1,-287.621 122.305,-410.467c-4.012,5.07 -8.016,10.148 -11.917,15.292c-0.688,0.903 -1.355,1.828 -2.035,2.739c-3.952,5.248 -7.853,10.54 -11.687,15.862c-1.451,2.006 -2.872,4.027 -4.3,6.04c-3.153,4.448 -6.269,8.926 -9.341,13.419c-1.384,2.035 -2.776,4.056 -4.152,6.099c-3.634,5.418 -7.217,10.866 -10.732,16.35c-0.637,0.984 -1.288,1.954 -1.917,2.938c-4.115,6.462 -8.134,12.975 -12.087,19.526c-1.088,1.813 -2.154,3.642 -3.235,5.462c-2.887,4.855 -5.729,9.733 -8.527,14.64c-1.243,2.176 -2.48,4.367 -3.701,6.558c-2.783,4.967 -5.514,9.963 -8.201,14.981c-0.97,1.813 -1.961,3.612 -2.916,5.433c-3.568,6.758 -7.061,13.552 -10.459,20.399c-0.577,1.162 -1.125,2.339 -1.702,3.508c-2.813,5.729 -5.573,11.48 -8.268,17.261c-1.021,2.198 -2.028,4.397 -3.035,6.602c-2.287,4.996 -4.522,10.014 -6.721,15.055c-0.947,2.169 -1.902,4.33 -2.827,6.506c-2.709,6.343 -5.359,12.716 -7.927,19.119c-0.281,0.703 -0.577,1.399 -0.859,2.102c-2.842,7.128 -5.581,14.3 -8.245,21.494c-0.74,1.998 -1.451,4.012 -2.176,6.01c-1.924,5.307 -3.804,10.629 -5.633,15.973c-0.799,2.332 -1.591,4.663 -2.376,7.009c-1.85,5.536 -3.634,11.102 -5.381,16.676c-0.57,1.813 -1.155,3.612 -1.717,5.425c-2.243,7.335 -4.404,14.692 -6.476,22.087c-0.4,1.436 -0.77,2.879 -1.162,4.323c-1.651,5.995 -3.242,12.006 -4.767,18.038c-0.607,2.376 -1.184,4.752 -1.769,7.128c-1.317,5.381 -2.583,10.777 -3.812,16.18c-0.511,2.272 -1.036,4.545 -1.532,6.817c-1.554,7.106 -3.042,14.219 -4.426,21.361c-0.081,0.429 -0.178,0.851 -0.259,1.273c-1.458,7.565 -2.798,15.151 -4.071,22.753c-0.377,2.243 -0.725,4.493 -1.081,6.743c-0.881,5.499 -1.717,11.014 -2.502,16.543c-0.355,2.509 -0.703,5.018 -1.044,7.527c-0.785,5.862 -1.503,11.739 -2.176,17.623c-0.215,1.865 -0.452,3.73 -0.651,5.603c-0.829,7.676 -1.569,15.358 -2.213,23.071c-0.148,1.732 -0.252,3.479 -0.392,5.218c-0.466,6.055 -0.888,12.117 -1.243,18.193c-0.148,2.531 -0.274,5.063 -0.4,7.602c-0.281,5.566 -0.511,11.147 -0.688,16.735c-0.081,2.383 -0.17,4.759 -0.229,7.135c-0.192,7.801 -0.318,15.61 -0.318,23.434c0,7.505 0.111,14.988 0.281,22.449c0.081,3.36 0.222,6.706 0.34,10.059c0.133,3.908 0.266,7.824 0.444,11.717c0.222,4.611 0.489,9.208 0.77,13.812c0.148,2.339 0.289,4.678 0.452,7.009c0.4,5.744 0.836,11.473 1.34,17.194c0.067,0.748 0.133,1.495 0.2,2.235c17.483,193.095 94.519,377.315 221.332,526.059c0.037,0.044 0.059,0.096 0.104,0.148c172.984,202.835 430.266,331.698 717.118,331.698c213.849,0 418.957,-72.625 584.11,-203.42c-122.897,69.28 -262.278,112.579 -410.681,122.431c-1.739,0.118 -3.471,0.222 -5.211,0.333" style="fill:#fff;fill-rule:nonzero;"/><path d="M2140.897,3089.491c-131.165,0 -260.146,-33.019 -374.717,-94.667c107.272,87.932 237.194,145.754 374.665,165.634c10.14,-1.443 20.214,-3.109 30.221,-4.959c2.583,-0.474 5.137,-1.007 7.713,-1.51c8.29,-1.621 16.528,-3.36 24.714,-5.248c2.45,-0.563 4.893,-1.118 7.335,-1.702c113.327,-27.32 216.336,-80.056 303.209,-151.416c-114.186,61.116 -242.567,93.868 -373.14,93.868" style="fill:#fff;fill-rule:nonzero;"/><path d="M1972.653,1436.38c7.92,-0.481 15.862,-0.866 23.833,-1.162c2.309,-0.089 4.611,-0.192 6.921,-0.266c9.681,-0.281 19.385,-0.474 29.133,-0.474c8.993,0 18.03,0.133 27.098,0.392c3.819,0.111 7.653,0.333 11.48,0.489c5.263,0.207 10.518,0.377 15.788,0.674c4.271,0.237 8.549,0.6 12.82,0.896c4.863,0.333 9.718,0.622 14.581,1.036c4.019,0.333 8.031,0.785 12.05,1.169c4.848,0.466 9.696,0.881 14.537,1.421c0.052,-0.007 0.096,-0.015 0.141,-0.015c17.86,-1.991 35.861,-3.516 53.995,-4.522c0.089,0 0.17,-0.007 0.259,-0.015c8.386,-0.459 16.809,-0.814 25.254,-1.066c0.696,-0.022 1.392,-0.059 2.087,-0.081c8.852,-0.237 17.727,-0.377 26.631,-0.377c9.748,0 19.452,0.192 29.133,0.474c2.309,0.074 4.619,0.178 6.928,0.266c7.957,0.296 15.891,0.681 23.796,1.162c1.732,0.104 3.464,0.215 5.196,0.326c148.418,9.859 287.814,53.166 410.726,122.453c-165.161,-130.802 -370.283,-203.435 -584.147,-203.435c-213.879,0 -418.979,72.625 -584.147,203.442c122.919,-69.294 262.33,-112.609 410.763,-122.461c1.717,-0.111 3.427,-0.222 5.144,-0.326" style="fill:#fff;fill-rule:nonzero;"/><path d="M2846.602,2800.975c2.006,-4.93 3.804,-9.94 5.707,-14.914c1.961,-5.152 4.034,-10.266 5.884,-15.462c1.813,-5.07 3.42,-10.214 5.129,-15.329c1.725,-5.166 3.545,-10.296 5.159,-15.499c1.628,-5.24 3.035,-10.547 4.552,-15.817c1.473,-5.144 3.057,-10.259 4.419,-15.432c1.443,-5.448 2.657,-10.954 3.982,-16.439c1.214,-5.063 2.539,-10.088 3.656,-15.173c1.236,-5.655 2.25,-11.362 3.36,-17.046c0.97,-4.974 2.058,-9.918 2.924,-14.907c1.014,-5.788 1.791,-11.613 2.665,-17.424c0.748,-4.937 1.606,-9.859 2.258,-14.811c0.807,-6.188 1.377,-12.42 2.028,-18.63c0.489,-4.611 1.103,-9.2 1.503,-13.826c0.614,-7.076 0.977,-14.182 1.392,-21.287c0.222,-3.79 0.577,-7.565 0.74,-11.362c0.474,-10.91 0.718,-21.842 0.718,-32.789c0,-10.177 -0.259,-20.318 -0.659,-30.428c-0.067,-1.591 -0.111,-3.183 -0.185,-4.767c-0.444,-9.77 -1.088,-19.511 -1.91,-29.214c-0.126,-1.577 -0.274,-3.161 -0.422,-4.737c-0.896,-9.963 -1.954,-19.903 -3.242,-29.784c-0.081,-0.607 -0.178,-1.206 -0.252,-1.806c-1.34,-10.044 -2.872,-20.044 -4.596,-29.992c-0.104,-0.607 -0.2,-1.221 -0.303,-1.836c-1.725,-9.785 -3.679,-19.511 -5.773,-29.192c-0.333,-1.517 -0.651,-3.027 -0.992,-4.537c-2.08,-9.311 -4.33,-18.578 -6.758,-27.786c-0.444,-1.695 -0.918,-3.375 -1.369,-5.063c-2.487,-9.193 -5.107,-18.341 -7.935,-27.416c-0.392,-1.258 -0.829,-2.509 -1.229,-3.767c-2.494,-7.875 -5.152,-15.692 -7.905,-23.478c-0.807,-2.28 -1.591,-4.582 -2.42,-6.854c-2.835,-7.772 -5.84,-15.477 -8.919,-23.145c-1.28,-3.168 -2.568,-6.336 -3.886,-9.482c-2.961,-7.091 -6.032,-14.145 -9.208,-21.139c-1.658,-3.642 -3.368,-7.246 -5.078,-10.858c-2.339,-4.937 -4.744,-9.837 -7.187,-14.722c-2.768,-5.522 -5.603,-11.006 -8.497,-16.454c-2.065,-3.893 -4.167,-7.764 -6.306,-11.621c-3.368,-6.084 -6.824,-12.102 -10.355,-18.082c-2.206,-3.738 -4.426,-7.468 -6.699,-11.169c-2.583,-4.219 -5.189,-8.423 -7.861,-12.583c-3.553,-5.544 -7.18,-11.043 -10.88,-16.498c-2.702,-3.989 -5.462,-7.942 -8.238,-11.872c-3.138,-4.441 -6.328,-8.845 -9.57,-13.227c-3.36,-4.552 -6.773,-9.067 -10.237,-13.545c-3.39,-4.374 -6.824,-8.719 -10.311,-13.027c-1.577,-1.954 -3.124,-3.923 -4.715,-5.855c61.959,114.785 95.141,244.085 95.141,375.575c0,186.581 -66.297,360.55 -177.499,497.636c-0.555,1.384 -1.273,2.724 -2.265,3.93c-96.34,117.265 -222.279,203.124 -363.311,249.754c-1.206,0.4 -2.398,0.836 -3.612,1.229c-7.935,2.583 -15.936,4.981 -23.967,7.313c-2.072,0.6 -4.108,1.295 -6.188,1.887c0.733,0 1.451,0.022 2.183,0.022c10.192,0 20.369,-0.252 30.532,-0.659c1.184,-0.052 2.376,-0.089 3.568,-0.141c162.962,-7.387 320.633,-67.488 447.423,-171.208c3.094,-3.782 6.032,-7.683 9.045,-11.524c3.619,-4.596 7.313,-9.148 10.814,-13.826c3.057,-4.078 5.936,-8.275 8.904,-12.405c3.397,-4.737 6.869,-9.415 10.148,-14.219c2.901,-4.234 5.61,-8.586 8.423,-12.871c3.153,-4.826 6.388,-9.6 9.43,-14.485c2.731,-4.389 5.27,-8.875 7.905,-13.316c2.924,-4.907 5.921,-9.778 8.727,-14.744c2.546,-4.508 4.893,-9.104 7.342,-13.649c2.694,-5.018 5.477,-9.992 8.06,-15.055c2.354,-4.633 4.522,-9.356 6.78,-14.034c2.465,-5.085 5.018,-10.133 7.365,-15.277c2.183,-4.789 4.175,-9.659 6.262,-14.5c2.213,-5.115 4.515,-10.192 6.61,-15.351" style="fill:#fff;fill-rule:nonzero;"/><path d="M3040.342,2427.883c-0.059,2.102 -0.163,4.197 -0.237,6.299c-0.178,5.033 -0.363,10.059 -0.629,15.07c-0.133,2.435 -0.311,4.855 -0.466,7.283c-0.296,4.693 -0.6,9.378 -0.977,14.041c-0.2,2.494 -0.437,4.981 -0.666,7.468c-0.414,4.611 -0.851,9.208 -1.347,13.797c-0.266,2.48 -0.555,4.952 -0.851,7.431c-0.533,4.582 -1.103,9.163 -1.725,13.73c-0.326,2.45 -0.674,4.893 -1.029,7.335c-0.659,4.582 -1.362,9.141 -2.109,13.693c-0.392,2.42 -0.785,4.833 -1.199,7.246c-0.792,4.567 -1.628,9.111 -2.487,13.649c-0.459,2.383 -0.903,4.767 -1.377,7.143c-0.91,4.537 -1.88,9.06 -2.864,13.567c-0.518,2.361 -1.007,4.73 -1.547,7.091c-1.029,4.515 -2.132,9 -3.242,13.486c-0.57,2.332 -1.11,4.67 -1.71,6.987c-1.184,4.604 -2.443,9.178 -3.708,13.752c-1.725,6.269 -3.545,12.516 -5.425,18.734c-0.622,2.05 -1.206,4.123 -1.843,6.166c-1.473,4.722 -3.035,9.408 -4.589,14.1c-0.54,1.621 -1.051,3.242 -1.606,4.855c-1.673,4.944 -3.427,9.852 -5.203,14.759c-0.459,1.258 -0.903,2.524 -1.362,3.782c-1.924,5.218 -3.908,10.407 -5.936,15.581c-0.311,0.792 -0.622,1.584 -0.933,2.369c-2.206,5.581 -4.478,11.132 -6.81,16.654c-0.081,0.185 -0.163,0.37 -0.237,0.555c-36.638,86.525 -88.739,166.36 -154.48,235.669c-1.051,1.118 -2.109,2.235 -3.168,3.338c-3.153,3.294 -6.343,6.55 -9.556,9.792c-1.85,1.865 -3.716,3.716 -5.588,5.566c-2.716,2.687 -5.448,5.366 -8.208,8.023c-2.665,2.554 -5.359,5.078 -8.053,7.594c-2.161,2.013 -4.293,4.041 -6.476,6.032c-4.374,3.997 -8.808,7.942 -13.271,11.85c-0.644,0.563 -1.273,1.14 -1.917,1.695c-5.403,4.693 -10.873,9.304 -16.402,13.849c-0.141,0.126 -0.289,0.252 -0.429,0.37c-0.044,0.037 -0.096,0.059 -0.141,0.096c-128.034,105.074 -289.494,170.808 -465.765,178.632c-1.229,0.059 -2.465,0.089 -3.693,0.141c-10.562,0.422 -21.154,0.696 -31.82,0.696c-8.49,0 -16.935,-0.185 -25.358,-0.452c-1.762,-0.052 -3.523,-0.126 -5.285,-0.2c-7.816,-0.296 -15.61,-0.703 -23.374,-1.229c-0.577,-0.037 -1.155,-0.074 -1.725,-0.111c-0.2,-0.015 -0.392,-0.022 -0.585,-0.037c0,0 -0.067,0 -0.096,-0.007l-0.022,0c-0.044,0 -0.089,-0.007 -0.133,-0.007c-210,-14.907 -397.618,-112.098 -530.707,-259.458c-0.748,-0.829 -1.48,-1.68 -2.228,-2.509c-3.323,-3.716 -6.632,-7.439 -9.889,-11.214c-1.243,-1.443 -2.45,-2.909 -3.686,-4.36c-2.79,-3.279 -5.581,-6.565 -8.319,-9.889c-0.133,-0.17 -0.281,-0.326 -0.414,-0.496c-0.03,-0.044 -0.052,-0.089 -0.089,-0.126c-112.098,-136.59 -179.476,-311.21 -179.476,-501.285c0,-190.082 67.385,-364.71 179.483,-501.3c0.037,-0.037 0.059,-0.089 0.089,-0.126c0.126,-0.148 0.252,-0.289 0.37,-0.444c4.545,-5.522 9.148,-10.984 13.834,-16.38c0.6,-0.688 1.214,-1.355 1.813,-2.043c3.864,-4.411 7.764,-8.793 11.717,-13.116c2.028,-2.228 4.093,-4.411 6.151,-6.61c2.48,-2.65 4.959,-5.307 7.476,-7.92c2.687,-2.805 5.396,-5.566 8.12,-8.319c1.806,-1.828 3.619,-3.649 5.44,-5.455c3.272,-3.249 6.573,-6.469 9.889,-9.659c1.073,-1.021 2.146,-2.035 3.22,-3.049c69.354,-65.808 149.247,-117.938 235.854,-154.591c0.118,-0.052 0.237,-0.104 0.363,-0.155c5.573,-2.354 11.169,-4.648 16.802,-6.876c0.733,-0.296 1.473,-0.577 2.206,-0.866c5.233,-2.05 10.473,-4.064 15.743,-6.003c1.184,-0.437 2.376,-0.851 3.568,-1.28c4.967,-1.799 9.948,-3.582 14.959,-5.285c1.525,-0.511 3.057,-0.999 4.589,-1.51c4.767,-1.584 9.541,-3.168 14.352,-4.67c1.85,-0.577 3.716,-1.103 5.573,-1.665c6.587,-1.998 13.197,-3.915 19.836,-5.744c4.382,-1.206 8.771,-2.42 13.182,-3.553c2.376,-0.607 4.767,-1.162 7.143,-1.747c4.441,-1.095 8.882,-2.191 13.345,-3.205c2.383,-0.54 4.774,-1.044 7.157,-1.562c4.485,-0.984 8.978,-1.947 13.493,-2.85c2.398,-0.481 4.804,-0.925 7.209,-1.384c4.522,-0.866 9.052,-1.695 13.597,-2.48c2.42,-0.422 4.841,-0.814 7.268,-1.206c4.537,-0.74 9.097,-1.443 13.663,-2.109c2.45,-0.355 4.907,-0.696 7.365,-1.029c4.567,-0.622 9.141,-1.184 13.73,-1.725c2.465,-0.289 4.937,-0.585 7.409,-0.851c4.596,-0.496 9.2,-0.933 13.819,-1.347c2.48,-0.222 4.967,-0.466 7.446,-0.666c4.678,-0.377 9.363,-0.681 14.056,-0.977c2.428,-0.155 4.848,-0.333 7.276,-0.459c5.011,-0.274 10.044,-0.459 15.077,-0.629c2.102,-0.074 4.189,-0.185 6.291,-0.244c7.12,-0.185 14.256,-0.296 21.413,-0.296c436.365,0 791.379,355.014 791.379,791.386c0,7.157 -0.104,14.3 -0.296,21.413m-180.475,-738.597c-0.022,-0.022 -0.052,-0.03 -0.067,-0.044c-148.729,-126.805 -332.942,-203.834 -526.029,-221.325c-0.762,-0.067 -1.525,-0.133 -2.295,-0.2c-5.707,-0.503 -11.421,-0.947 -17.15,-1.34c-2.346,-0.163 -4.7,-0.311 -7.054,-0.452c-4.589,-0.281 -9.178,-0.555 -13.775,-0.77c-3.908,-0.185 -7.824,-0.311 -11.739,-0.444c-3.346,-0.118 -6.691,-0.259 -10.044,-0.34c-7.468,-0.17 -14.944,-0.281 -22.457,-0.281c-8.645,0 -17.335,0.126 -26.054,0.37c-0.925,0.03 -1.843,0.081 -2.776,0.111c-8.001,0.244 -16.025,0.577 -24.055,1.029c-0.4,0.022 -0.785,0.052 -1.184,0.074c-8.586,0.496 -17.187,1.103 -25.78,1.828c-0.104,0.007 -0.2,0.022 -0.303,0.03c-8.741,0.748 -17.49,1.614 -26.217,2.598c-0.274,0.03 -0.548,0.059 -0.822,0.089c-7.18,0.822 -14.344,1.71 -21.487,2.694c-0.207,0.022 -0.407,0.059 -0.614,0.081c-7.202,0.992 -14.389,2.065 -21.546,3.22c-0.163,0.022 -0.318,0.052 -0.474,0.081c-7.172,1.155 -14.322,2.398 -21.45,3.723c-0.229,0.044 -0.452,0.089 -0.681,0.133c-7.039,1.31 -14.056,2.694 -21.043,4.167c-0.437,0.089 -0.866,0.192 -1.303,0.281c-6.78,1.436 -13.538,2.938 -20.273,4.515c-0.844,0.2 -1.673,0.414 -2.517,0.614c-6.306,1.503 -12.59,3.049 -18.852,4.67c-2.124,0.555 -4.234,1.155 -6.351,1.725c-4.959,1.325 -9.926,2.65 -14.863,4.056c-126.028,36.024 -241.354,97.68 -339.936,178.95c-0.318,0.266 -0.644,0.533 -0.962,0.799c-5.004,4.13 -9.948,8.334 -14.863,12.568c-1.192,1.029 -2.383,2.05 -3.568,3.079c-3.967,3.457 -7.89,6.958 -11.798,10.481c-2.072,1.865 -4.138,3.723 -6.195,5.61c-2.938,2.687 -5.84,5.411 -8.741,8.134c-2.938,2.768 -5.877,5.544 -8.786,8.349c-1.954,1.887 -3.886,3.79 -5.825,5.692c-3.73,3.656 -7.446,7.335 -11.117,11.065c-1.103,1.11 -2.191,2.243 -3.286,3.36c-4.397,4.508 -8.764,9.045 -13.079,13.641c-0.392,0.422 -0.785,0.844 -1.169,1.258c-9.97,10.666 -19.725,21.576 -29.251,32.745l0,0.007c-126.805,148.736 -203.842,332.957 -221.325,526.044c-0.074,0.762 -0.141,1.517 -0.207,2.28c-0.503,5.714 -0.94,11.436 -1.34,17.164c-0.163,2.339 -0.303,4.685 -0.444,7.039c-0.289,4.589 -0.555,9.185 -0.77,13.789c-0.185,3.901 -0.318,7.816 -0.452,11.732c-0.118,3.346 -0.259,6.691 -0.333,10.044c-0.178,7.468 -0.289,14.951 -0.289,22.457c0,519.627 422.746,942.373 942.38,942.373c7.513,0 14.988,-0.111 22.457,-0.281c3.353,-0.081 6.699,-0.222 10.044,-0.34c3.915,-0.133 7.831,-0.266 11.739,-0.444c4.596,-0.222 9.185,-0.489 13.775,-0.77c2.354,-0.148 4.707,-0.289 7.054,-0.452c5.729,-0.4 11.443,-0.836 17.15,-1.34c0.77,-0.067 1.532,-0.133 2.295,-0.2c193.087,-17.49 377.3,-94.519 526.022,-221.317c0.015,-0.015 0.037,-0.022 0.059,-0.037c202.88,-172.992 331.787,-430.303 331.787,-717.192c0,-286.889 -128.9,-544.2 -331.772,-717.184" style="fill:#fff;fill-rule:nonzero;"/><path d="M2249.262,1644.691c-10.177,0 -20.318,0.259 -30.436,0.659c-1.584,0.067 -3.175,0.111 -4.759,0.185c-9.763,0.444 -19.503,1.088 -29.2,1.902c-1.591,0.133 -3.175,0.281 -4.759,0.429c-9.963,0.896 -19.888,1.954 -29.762,3.242c-0.614,0.081 -1.229,0.178 -1.843,0.259c-10.029,1.332 -20.007,2.857 -29.94,4.582c-0.622,0.111 -1.243,0.2 -1.865,0.311c-9.778,1.725 -19.489,3.671 -29.163,5.766c-1.525,0.333 -3.057,0.659 -4.582,0.999c-9.304,2.08 -18.556,4.33 -27.756,6.75c-1.702,0.452 -3.39,0.918 -5.092,1.384c-9.178,2.48 -18.312,5.092 -27.371,7.92c-1.288,0.4 -2.561,0.844 -3.849,1.251c-7.838,2.487 -15.625,5.129 -23.374,7.868c-2.302,0.822 -4.626,1.606 -6.921,2.443c-7.75,2.827 -15.432,5.825 -23.086,8.904c-3.19,1.28 -6.38,2.583 -9.548,3.908c-7.076,2.961 -14.1,6.018 -21.08,9.185c-3.664,1.665 -7.291,3.39 -10.925,5.107c-4.893,2.317 -9.755,4.7 -14.596,7.128c-5.573,2.783 -11.102,5.64 -16.595,8.564c-3.856,2.043 -7.69,4.13 -11.51,6.24c-6.151,3.412 -12.25,6.906 -18.297,10.481c-3.664,2.169 -7.32,4.345 -10.954,6.565c-4.249,2.613 -8.49,5.24 -12.686,7.935c-5.507,3.531 -10.969,7.135 -16.387,10.806c-4.034,2.739 -8.038,5.529 -12.02,8.334c-4.271,3.02 -8.505,6.099 -12.723,9.208c-4.737,3.494 -9.43,7.039 -14.078,10.636c-4.256,3.294 -8.475,6.632 -12.664,10.014c-2.028,1.636 -4.071,3.242 -6.084,4.9c114.785,-61.937 244.048,-95.111 375.538,-95.111c190.082,0 364.717,67.377 501.3,179.483c0.037,0.03 0.074,0.044 0.111,0.067c0.118,0.104 0.237,0.207 0.355,0.311c5.581,4.589 11.11,9.237 16.558,13.974c0.4,0.348 0.792,0.711 1.192,1.058c4.715,4.115 9.378,8.275 13.997,12.494c2.065,1.887 4.086,3.804 6.129,5.714c2.835,2.635 5.655,5.285 8.445,7.964c2.665,2.554 5.292,5.137 7.912,7.727c1.976,1.954 3.945,3.908 5.899,5.884c3.131,3.153 6.232,6.321 9.296,9.519c1.169,1.214 2.324,2.443 3.479,3.664c65.631,69.243 117.649,148.973 154.258,235.38c0.104,0.252 0.207,0.503 0.318,0.755c2.302,5.462 4.552,10.947 6.736,16.461c0.34,0.866 0.681,1.732 1.021,2.598c1.998,5.107 3.96,10.229 5.855,15.381c0.496,1.332 0.962,2.679 1.451,4.012c1.747,4.833 3.479,9.674 5.129,14.544c0.585,1.71 1.132,3.442 1.702,5.159c1.525,4.589 3.049,9.178 4.493,13.804c0.725,2.317 1.384,4.656 2.087,6.98c1.739,5.773 3.427,11.561 5.041,17.379c1.325,4.774 2.635,9.556 3.871,14.367c0.577,2.243 1.095,4.508 1.651,6.758c1.132,4.559 2.25,9.126 3.301,13.723c0.526,2.309 1.014,4.641 1.517,6.958c0.999,4.552 1.976,9.111 2.894,13.686c0.466,2.354 0.903,4.715 1.355,7.069c0.873,4.567 1.717,9.148 2.509,13.737c0.407,2.383 0.799,4.774 1.184,7.165c0.748,4.574 1.458,9.163 2.124,13.76c0.348,2.435 0.688,4.863 1.021,7.298c0.622,4.582 1.192,9.178 1.732,13.782c0.289,2.457 0.577,4.915 0.844,7.379c0.496,4.604 0.933,9.222 1.355,13.856c0.222,2.465 0.459,4.937 0.659,7.409c0.377,4.678 0.681,9.371 0.977,14.063c0.155,2.428 0.333,4.848 0.466,7.283c0.266,5.004 0.452,10.037 0.629,15.07c0.067,2.095 0.178,4.189 0.237,6.299c0.192,7.113 0.296,14.248 0.296,21.413c0,10.185 -0.266,20.355 -0.666,30.517c-0.111,2.872 -0.259,5.744 -0.407,8.616c-0.392,7.957 -0.918,15.899 -1.554,23.819c-0.2,2.457 -0.363,4.915 -0.577,7.357c-0.903,10.037 -1.991,20.051 -3.272,30.029c-0.259,1.991 -0.577,3.975 -0.851,5.966c-1.118,8.201 -2.369,16.365 -3.745,24.514c-0.481,2.864 -0.97,5.721 -1.488,8.579c-1.577,8.771 -3.294,17.52 -5.166,26.232c-0.259,1.221 -0.481,2.45 -0.755,3.664c-2.169,9.859 -4.567,19.651 -7.106,29.414c-0.666,2.554 -1.384,5.1 -2.072,7.646c-2.072,7.631 -4.256,15.233 -6.558,22.797c-0.762,2.517 -1.503,5.033 -2.295,7.542c-3.027,9.637 -6.203,19.222 -9.6,28.733c-0.385,1.081 -0.814,2.154 -1.206,3.235c-3.072,8.482 -6.299,16.913 -9.659,25.284c-1.044,2.605 -2.109,5.196 -3.175,7.787c-3.212,7.764 -6.536,15.469 -9.992,23.123c-0.762,1.702 -1.488,3.427 -2.272,5.122c-4.226,9.2 -8.638,18.312 -13.219,27.349c-1.021,2.013 -2.095,4.012 -3.131,6.018c-2.109,4.078 -4.182,8.186 -6.365,12.228c1.606,-1.939 3.161,-3.93 4.744,-5.892c3.479,-4.293 6.898,-8.623 10.281,-12.99c3.442,-4.456 6.847,-8.949 10.199,-13.486c3.257,-4.404 6.469,-8.838 9.622,-13.308c2.761,-3.915 5.507,-7.853 8.201,-11.82c3.716,-5.477 7.357,-10.999 10.925,-16.565c2.642,-4.13 5.233,-8.297 7.801,-12.479c2.324,-3.797 4.604,-7.616 6.861,-11.45c3.464,-5.87 6.854,-11.783 10.162,-17.749c2.183,-3.945 4.337,-7.905 6.447,-11.88c2.835,-5.329 5.603,-10.695 8.312,-16.099c2.494,-4.989 4.952,-9.992 7.335,-15.033c1.688,-3.553 3.368,-7.113 5.004,-10.695c3.198,-7.046 6.291,-14.145 9.274,-21.287c1.295,-3.086 2.561,-6.195 3.812,-9.304c3.101,-7.72 6.129,-15.469 8.978,-23.293c0.807,-2.22 1.569,-4.456 2.361,-6.684c2.783,-7.868 5.47,-15.773 7.994,-23.737c0.377,-1.199 0.792,-2.383 1.162,-3.582c2.842,-9.119 5.477,-18.312 7.972,-27.549c0.444,-1.636 0.903,-3.264 1.332,-4.907c2.435,-9.245 4.693,-18.541 6.78,-27.889c0.333,-1.48 0.651,-2.968 0.977,-4.448c2.102,-9.704 4.056,-19.452 5.781,-29.259c0.104,-0.592 0.192,-1.184 0.296,-1.776c1.732,-9.97 3.272,-19.999 4.604,-30.066c0.081,-0.585 0.17,-1.169 0.252,-1.762c1.288,-9.889 2.346,-19.829 3.249,-29.807c0.141,-1.569 0.289,-3.146 0.414,-4.715c0.822,-9.711 1.466,-19.452 1.91,-29.222c0.074,-1.584 0.118,-3.175 0.185,-4.767c0.4,-10.111 0.659,-20.251 0.659,-30.428c0,-420.045 -341.728,-761.779 -761.772,-761.779" style="fill:#fff;fill-rule:nonzero;"/><path d="M1810.489,2579.213l59.058,0l0,-391.844l-41.249,0c-5.625,12.916 -14.84,23.9 -27.653,32.96c-12.812,9.067 -26.298,14.426 -40.465,16.091l0,41.249l50.309,0l0,301.544Z" style="fill:#fff;fill-rule:nonzero;"/><path d="M1997.524,2512.968c-6.565,-6.669 -9.844,-14.692 -9.844,-24.063l0,-214.049c0,-9.378 3.279,-17.394 9.844,-24.055c6.558,-6.669 14.529,-10 23.9,-10c9.378,0 17.394,3.331 24.063,10c6.669,6.661 10,14.678 10,24.055l0,214.049c0,9.371 -3.331,17.394 -10,24.063c-6.669,6.669 -14.685,10 -24.063,10c-9.371,0 -17.342,-3.331 -23.9,-10m91.714,43.122c18.327,-18.119 27.497,-40.206 27.497,-66.245l0,-213.738c0,-25.832 -9.067,-47.911 -27.186,-66.245c-18.127,-18.327 -40.206,-27.497 -66.245,-27.497c-25.832,0 -47.918,9.111 -66.245,27.342c-18.334,18.23 -27.497,40.361 -27.497,66.4l0,213.738c0,25.832 9.104,47.859 27.342,66.089c18.223,18.23 40.354,27.342 66.4,27.342c25.625,0 47.6,-9.06 65.934,-27.186" style="fill:#fff;fill-rule:nonzero;"/><path d="M2218.723,2262.756c2.191,-7.172 5.884,-13.034 11.095,-17.609c6.454,-5.603 14.789,-8.416 24.995,-8.416c5.203,0 9.689,0.836 13.441,2.494c16.454,6.854 24.892,23.678 25.306,50.472c0.207,14.959 -2.398,26.898 -7.809,35.831c-6.462,10.599 -16.772,15.884 -30.939,15.884c-14.167,0 -24.374,-4.981 -30.621,-14.951c-4.796,-7.476 -7.498,-19.733 -8.127,-36.764c-0.422,-10.799 0.474,-19.77 2.657,-26.942m-35.78,128.663c-16.039,17.912 -24.055,38.851 -24.055,62.803l0,35.624c0,25.617 9.06,47.6 27.179,65.927c18.127,18.341 40.206,27.505 66.252,27.505l2.494,0l0,-60.627c-10,-0.414 -18.334,-3.952 -24.995,-10.621c-7.92,-7.912 -11.872,-18.327 -11.872,-31.25l0,-18.748c0,-13.538 1.658,-24.374 4.996,-32.493c5.625,-13.33 16.247,-19.999 31.872,-19.999c8.956,0 15.936,1.873 20.939,5.625c10.621,7.92 15.936,23.545 15.936,46.867l0,6.743l59.058,0l0,-14.552c0,-14.581 -2.502,-26.979 -7.498,-37.186c-9.585,-19.999 -23.13,-34.891 -40.62,-44.684c7.912,-4.167 15.099,-9.792 21.561,-16.868c14.574,-16.047 21.872,-36.253 21.872,-60.627l0,-21.243c0,-25.21 -7.498,-46.253 -22.501,-63.129c-16.669,-18.741 -38.851,-28.119 -66.556,-28.119l-4.685,0c-27.505,0 -49.584,9.378 -66.252,28.119c-14.996,16.669 -22.494,37.711 -22.494,63.129l0,21.243c0,14.796 2.183,27.083 6.558,36.868c8.749,18.963 21.043,32.501 36.875,40.628c-9.171,4.996 -17.187,11.354 -24.063,19.067" style="fill:#fff;fill-rule:nonzero;"/><rect x="2233.451" y="2628.988" width="21.361" height="21.361" style="fill:#fff;"/><path d="M2301.65,2627.957c-2.146,2.043 -4.789,3.168 -7.927,3.375c-1.769,0.141 -3.131,0.141 -4.086,0.104c-2.665,-0.104 -6.454,-0.873 -8.386,-1.473l0,18.852c3.064,1.021 7.054,1.532 11.961,1.532c8.453,0 15.662,-2.946 21.628,-8.845c5.966,-5.892 8.949,-13.101 8.949,-21.62l0,-98.879l-18.919,0l0,99.286c0,3.072 -1.073,5.625 -3.22,7.668" style="fill:#fff;fill-rule:nonzero;"/><path d="M2364.463,2549.431c0,-3.064 1.088,-5.677 3.272,-7.824c2.183,-2.146 4.804,-3.22 7.875,-3.22c3.064,0 5.67,1.073 7.824,3.22c2.146,2.146 3.22,4.759 3.22,7.824l0,70.146c0,3.064 -1.073,5.67 -3.22,7.816c-2.154,2.146 -4.759,3.227 -7.824,3.227c-3.072,0 -5.692,-1.081 -7.875,-3.227c-2.183,-2.146 -3.272,-4.752 -3.272,-7.816l0,-70.146Zm-18.919,70.345c0,8.453 2.968,15.684 8.897,21.679c5.936,5.995 13.16,9 21.679,9c8.453,0 15.677,-2.983 21.672,-8.949c6.003,-5.966 9,-13.205 9,-21.731l0,-69.938c0,-8.445 -2.983,-15.677 -8.949,-21.672c-5.966,-6.003 -13.205,-9 -21.724,-9c-8.386,0 -15.581,2.983 -21.576,8.949c-5.995,5.966 -9,13.205 -9,21.724l0,69.938Z" style="fill:#fff;fill-rule:nonzero;"/><path d="M2471.541,2619.675c-2.524,6.75 -7.054,10.125 -13.597,10.125l-8.083,0l0,-38.244l8.083,0c4.767,0 8.386,1.503 10.836,4.5c2.724,3.272 4.093,8.482 4.093,15.64c0,3.005 -0.444,5.662 -1.332,7.979m-21.679,-79.346l8.083,0c3.812,0 6.913,1.266 9.304,3.782c2.591,2.731 3.886,6.75 3.886,12.072c0,3.198 -0.377,5.892 -1.125,8.075c-2.043,5.862 -6.069,8.793 -12.065,8.793l-8.083,0l0,-32.723Zm41.819,15.854c0,-5.255 -0.607,-9.785 -1.836,-13.604c-2.25,-7.157 -6.003,-12.435 -11.251,-15.847c-6.136,-4.019 -13.02,-6.032 -20.651,-6.032l-28.941,0l0,128.219l35.787,0c4.841,0 9.718,-1.503 14.626,-4.5c4.36,-2.657 7.735,-6.203 10.118,-10.636c3.072,-5.655 4.604,-12.538 4.604,-20.651c0,-3.272 -0.237,-6.24 -0.718,-8.897c-0.955,-5.181 -2.42,-9.408 -4.397,-12.679c-2.998,-4.841 -6.647,-8.075 -10.94,-9.711c2.591,-1.162 4.841,-2.827 6.75,-5.011c4.567,-5.181 6.847,-12.065 6.847,-20.651" style="fill:#fff;fill-rule:nonzero;"/><path d="M2541.83,2632.662c-2.998,0.141 -5.662,-1.066 -7.979,-3.597c-3.131,-3.36 -5.107,-8.771 -5.929,-16.239l-18.401,1.332c0.407,6.817 1.821,12.864 4.241,18.149c2.42,5.277 5.707,9.452 9.866,12.524c4.974,3.745 11.251,5.625 18.815,5.625c4.086,0 7.668,-0.481 10.732,-1.436c5.729,-1.769 10.162,-4.804 13.293,-9.097c4.774,-6.343 7.091,-13.974 6.958,-22.908c-0.074,-3.612 -1.029,-7.698 -2.864,-12.265c-0.755,-1.843 -1.739,-3.856 -2.968,-6.032c-2.591,-4.641 -6.269,-9.341 -11.043,-14.115c-1.429,-1.495 -4.397,-4.123 -8.897,-7.868c-3.819,-3.138 -6.676,-5.862 -8.586,-8.186c-5.048,-6.062 -7.565,-12.028 -7.565,-17.89c0,-3.745 0.748,-6.884 2.25,-9.408c1.836,-3.131 4.53,-4.7 8.075,-4.7c3.338,0 5.899,1.051 7.668,3.168c2.457,2.931 3.952,7.024 4.5,12.265l18.504,-3.368c-0.474,-5.588 -1.887,-10.533 -4.241,-14.826c-2.354,-4.3 -5.44,-7.639 -9.252,-10.022c-4.907,-3.072 -10.806,-4.604 -17.69,-4.604c-7.157,0 -13.16,1.806 -17.993,5.425c-7.846,6.003 -11.761,14.84 -11.761,26.505c0,6.484 1.429,12.487 4.293,18.016c2.657,4.907 7.194,10.473 13.597,16.676c7.639,7.239 13.36,12.657 17.179,16.276c4.841,5.248 7.261,10.54 7.261,15.862c0,3.686 -0.651,6.513 -1.939,8.49c-2.524,4.027 -5.899,6.114 -10.125,6.247" style="fill:#fff;fill-rule:nonzero;"/></g></g><g id="color-code" serif:id="color code"></g></svg>